<?xml version="1.0" encoding="UTF-8" standalone="no"?>
<!DOCTYPE svg PUBLIC "-//W3C//DTD SVG 1.1//EN"
 "http://www.w3.org/Graphics/SVG/1.1/DTD/svg11.dtd">
<!-- Generated by graphviz version 2.47.2 (20210527.0053)
 -->
<!-- Title: dynamic_programming::word_break::wordBreak Pages: 1 -->
<svg width="267pt" height="57pt"
 viewBox="0.00 0.00 267.00 57.00" xmlns="http://www.w3.org/2000/svg" xmlns:xlink="http://www.w3.org/1999/xlink">
<g id="graph0" class="graph" transform="scale(1 1) rotate(0) translate(4 53)">
<title>dynamic_programming::word_break::wordBreak</title>
<polygon fill="white" stroke="transparent" points="-4,4 -4,-53 263,-53 263,4 -4,4"/>
<!-- Node1 -->
<g id="node1" class="node">
<title>Node1</title>
<g id="a_node1"><a xlink:title="Function that checks if the string passed in param can be segmented into the strings present in the v...">
<polygon fill="#bfbfbf" stroke="black" points="0,-0.5 0,-30.5 125,-30.5 125,-0.5 0,-0.5"/>
<text text-anchor="start" x="8" y="-18.5" font-family="Helvetica,sans-Serif" font-size="10.00">dynamic_programming</text>
<text text-anchor="middle" x="62.5" y="-7.5" font-family="Helvetica,sans-Serif" font-size="10.00">::word_break::wordBreak</text>
</a>
</g>
</g>
<!-- Node1&#45;&gt;Node1 -->
<g id="edge2" class="edge">
<title>Node1&#45;&gt;Node1</title>
<path fill="none" stroke="midnightblue" d="M37.06,-30.66C30.92,-40.06 39.4,-49 62.5,-49 76.58,-49 85.22,-45.68 88.44,-40.96"/>
<polygon fill="midnightblue" stroke="midnightblue" points="91.92,-40.48 87.94,-30.66 84.93,-40.82 91.92,-40.48"/>
</g>
<!-- Node2 -->
<g id="node2" class="node">
<title>Node2</title>
<g id="a_node2"><a target="_blank" xlink:href="http://en.cppreference.com/w/cpp/container/unordered_set/insert.html#" xlink:title=" ">
<polygon fill="white" stroke="black" points="161,-0.5 161,-30.5 259,-30.5 259,-0.5 161,-0.5"/>
<text text-anchor="start" x="169" y="-18.5" font-family="Helvetica,sans-Serif" font-size="10.00">std::unordered_set</text>
<text text-anchor="middle" x="210" y="-7.5" font-family="Helvetica,sans-Serif" font-size="10.00">::insert</text>
</a>
</g>
</g>
<!-- Node1&#45;&gt;Node2 -->
<g id="edge1" class="edge">
<title>Node1&#45;&gt;Node2</title>
<path fill="none" stroke="midnightblue" d="M125.21,-15.5C133.69,-15.5 142.37,-15.5 150.78,-15.5"/>
<polygon fill="midnightblue" stroke="midnightblue" points="150.88,-19 160.88,-15.5 150.88,-12 150.88,-19"/>
</g>
</g>
</svg>
